<svg id="Layer_1" data-name="Layer 1" xmlns="http://www.w3.org/2000/svg" viewBox="0 0 407 407"><defs><style>.cls-1{fill:#435366;}.cls-2{fill:none;}</style></defs><title>fancynext</title><path class="cls-1" d="M250.5,42a199.55,199.55,0,0,1,77.65,383.32A199.55,199.55,0,0,1,172.85,57.68,198.09,198.09,0,0,1,250.5,42m0-4C138.11,38,47,129.11,47,241.5S138.11,445,250.5,445,454,353.89,454,241.5,362.89,38,250.5,38Z" transform="translate(-47 -38)"/><path class="cls-2" d="M102.52,387.85l1.39-272.76,272.76,1.39-1.39,272.76Z" transform="translate(-47 -38)"/><path class="cls-1" d="M274.8,288.94l-43.87-44.32,44.32-43.87a11.33,11.33,0,0,0-15.94-16.11l-52.43,51.9a11.32,11.32,0,0,0-.08,16L258.69,305a11.33,11.33,0,0,0,16,.08A11.56,11.56,0,0,0,274.8,288.94Z" transform="translate(-47 -38)"/></svg>